<?xml version="1.0" encoding="UTF-8" standalone="no"?>
<!DOCTYPE svg PUBLIC "-//W3C//DTD SVG 1.1//EN"
 "http://www.w3.org/Graphics/SVG/1.1/DTD/svg11.dtd">
<!-- Generated by graphviz version 2.46.1 (20210213.1702)
 -->
<!-- Title: Tree Pages: 1 -->
<svg width="351pt" height="314pt"
 viewBox="0.00 0.00 351.00 314.00" xmlns="http://www.w3.org/2000/svg" xmlns:xlink="http://www.w3.org/1999/xlink">
<g id="graph0" class="graph" transform="scale(1 1) rotate(0) translate(4 310)">
<title>Tree</title>
<polygon fill="white" stroke="transparent" points="-4,4 -4,-310 347,-310 347,4 -4,4"/>
<!-- 0 -->
<g id="node1" class="node">
<title>0</title>
<path fill="#ffffff" stroke="black" d="M209.5,-306C209.5,-306 65.5,-306 65.5,-306 59.5,-306 53.5,-300 53.5,-294 53.5,-294 53.5,-235 53.5,-235 53.5,-229 59.5,-223 65.5,-223 65.5,-223 209.5,-223 209.5,-223 215.5,-223 221.5,-229 221.5,-235 221.5,-235 221.5,-294 221.5,-294 221.5,-300 215.5,-306 209.5,-306"/>
<text text-anchor="middle" x="137.5" y="-290.8" font-family="Helvetica,sans-Serif" font-size="14.00">petal length (cm) &lt;= 2.45</text>
<text text-anchor="middle" x="137.5" y="-275.8" font-family="Helvetica,sans-Serif" font-size="14.00">gini = 0.667</text>
<text text-anchor="middle" x="137.5" y="-260.8" font-family="Helvetica,sans-Serif" font-size="14.00">samples = 150</text>
<text text-anchor="middle" x="137.5" y="-245.8" font-family="Helvetica,sans-Serif" font-size="14.00">value = [50, 50, 50]</text>
<text text-anchor="middle" x="137.5" y="-230.8" font-family="Helvetica,sans-Serif" font-size="14.00">class = setosa</text>
</g>
<!-- 1 -->
<g id="node2" class="node">
<title>1</title>
<path fill="#e58139" stroke="black" d="M105,-179.5C105,-179.5 12,-179.5 12,-179.5 6,-179.5 0,-173.5 0,-167.5 0,-167.5 0,-123.5 0,-123.5 0,-117.5 6,-111.5 12,-111.5 12,-111.5 105,-111.5 105,-111.5 111,-111.5 117,-117.5 117,-123.5 117,-123.5 117,-167.5 117,-167.5 117,-173.5 111,-179.5 105,-179.5"/>
<text text-anchor="middle" x="58.5" y="-164.3" font-family="Helvetica,sans-Serif" font-size="14.00">gini = 0.0</text>
<text text-anchor="middle" x="58.5" y="-149.3" font-family="Helvetica,sans-Serif" font-size="14.00">samples = 50</text>
<text text-anchor="middle" x="58.5" y="-134.3" font-family="Helvetica,sans-Serif" font-size="14.00">value = [50, 0, 0]</text>
<text text-anchor="middle" x="58.5" y="-119.3" font-family="Helvetica,sans-Serif" font-size="14.00">class = setosa</text>
</g>
<!-- 0&#45;&gt;1 -->
<g id="edge1" class="edge">
<title>0&#45;&gt;1</title>
<path fill="none" stroke="black" d="M110.09,-222.91C102.49,-211.65 94.23,-199.42 86.59,-188.11"/>
<polygon fill="black" stroke="black" points="89.39,-186 80.89,-179.67 83.59,-189.91 89.39,-186"/>
<text text-anchor="middle" x="76.14" y="-200.51" font-family="Helvetica,sans-Serif" font-size="14.00">True</text>
</g>
<!-- 2 -->
<g id="node3" class="node">
<title>2</title>
<path fill="#ffffff" stroke="black" d="M286,-187C286,-187 147,-187 147,-187 141,-187 135,-181 135,-175 135,-175 135,-116 135,-116 135,-110 141,-104 147,-104 147,-104 286,-104 286,-104 292,-104 298,-110 298,-116 298,-116 298,-175 298,-175 298,-181 292,-187 286,-187"/>
<text text-anchor="middle" x="216.5" y="-171.8" font-family="Helvetica,sans-Serif" font-size="14.00">petal width (cm) &lt;= 1.75</text>
<text text-anchor="middle" x="216.5" y="-156.8" font-family="Helvetica,sans-Serif" font-size="14.00">gini = 0.5</text>
<text text-anchor="middle" x="216.5" y="-141.8" font-family="Helvetica,sans-Serif" font-size="14.00">samples = 100</text>
<text text-anchor="middle" x="216.5" y="-126.8" font-family="Helvetica,sans-Serif" font-size="14.00">value = [0, 50, 50]</text>
<text text-anchor="middle" x="216.5" y="-111.8" font-family="Helvetica,sans-Serif" font-size="14.00">class = versicolor</text>
</g>
<!-- 0&#45;&gt;2 -->
<g id="edge2" class="edge">
<title>0&#45;&gt;2</title>
<path fill="none" stroke="black" d="M164.91,-222.91C170.91,-214.01 177.33,-204.51 183.53,-195.33"/>
<polygon fill="black" stroke="black" points="186.44,-197.27 189.14,-187.02 180.64,-193.35 186.44,-197.27"/>
<text text-anchor="middle" x="193.9" y="-207.86" font-family="Helvetica,sans-Serif" font-size="14.00">False</text>
</g>
<!-- 3 -->
<g id="node4" class="node">
<title>3</title>
<path fill="#4de88e" stroke="black" d="M196,-68C196,-68 99,-68 99,-68 93,-68 87,-62 87,-56 87,-56 87,-12 87,-12 87,-6 93,0 99,0 99,0 196,0 196,0 202,0 208,-6 208,-12 208,-12 208,-56 208,-56 208,-62 202,-68 196,-68"/>
<text text-anchor="middle" x="147.5" y="-52.8" font-family="Helvetica,sans-Serif" font-size="14.00">gini = 0.168</text>
<text text-anchor="middle" x="147.5" y="-37.8" font-family="Helvetica,sans-Serif" font-size="14.00">samples = 54</text>
<text text-anchor="middle" x="147.5" y="-22.8" font-family="Helvetica,sans-Serif" font-size="14.00">value = [0, 49, 5]</text>
<text text-anchor="middle" x="147.5" y="-7.8" font-family="Helvetica,sans-Serif" font-size="14.00">class = versicolor</text>
</g>
<!-- 2&#45;&gt;3 -->
<g id="edge3" class="edge">
<title>2&#45;&gt;3</title>
<path fill="none" stroke="black" d="M190.81,-103.73C185.29,-94.97 179.45,-85.7 173.91,-76.91"/>
<polygon fill="black" stroke="black" points="176.78,-74.89 168.48,-68.3 170.85,-78.63 176.78,-74.89"/>
</g>
<!-- 4 -->
<g id="node5" class="node">
<title>4</title>
<path fill="#843de6" stroke="black" d="M331,-68C331,-68 238,-68 238,-68 232,-68 226,-62 226,-56 226,-56 226,-12 226,-12 226,-6 232,0 238,0 238,0 331,0 331,0 337,0 343,-6 343,-12 343,-12 343,-56 343,-56 343,-62 337,-68 331,-68"/>
<text text-anchor="middle" x="284.5" y="-52.8" font-family="Helvetica,sans-Serif" font-size="14.00">gini = 0.043</text>
<text text-anchor="middle" x="284.5" y="-37.8" font-family="Helvetica,sans-Serif" font-size="14.00">samples = 46</text>
<text text-anchor="middle" x="284.5" y="-22.8" font-family="Helvetica,sans-Serif" font-size="14.00">value = [0, 1, 45]</text>
<text text-anchor="middle" x="284.5" y="-7.8" font-family="Helvetica,sans-Serif" font-size="14.00">class = virginica</text>
</g>
<!-- 2&#45;&gt;4 -->
<g id="edge4" class="edge">
<title>2&#45;&gt;4</title>
<path fill="none" stroke="black" d="M241.82,-103.73C247.26,-94.97 253.01,-85.7 258.48,-76.91"/>
<polygon fill="black" stroke="black" points="261.52,-78.64 263.82,-68.3 255.57,-74.95 261.52,-78.64"/>
</g>
</g>
</svg>
